<svg xmlns="http://www.w3.org/2000/svg" viewBox="0 0 270.15585 327.38309">
 <path d="m153.92 0l.03.0058594c-.43.0000020-.95.47288-1.56 1.4199l-10.2 29.34c-.85 2.706-1.7 5.992-2.55 9.857-.78 3.866-1.36 11.79-1.74 23.773-.31 11.983-.58 24.082-.81 36.294-.24 12.22-.62 24.63-1.16 37.23 0 4.72-.16 8.97-.47 12.76-1.31 24.81-5.45 42.67-12.41 53.57-6.1 10.36-14.34 18.98-24.698 25.86-13.916 8.04-28.412 11.99-43.487 11.83-11.21-.39-21.03-3.32-29.457-8.81-8.349-5.41-13.298-13.92-14.844-25.51-.231-3.87.002-7.89.698-12.07.773-4.25 1.816-8.54 3.131-12.87 1.314-4.41 2.82-8.81 4.521-13.22 1.778-4.48 3.558-8.89 5.336-13.22 1.546-3.63 2.396-6.45 2.551-8.46.154-2.01-.039-2.94-.580-2.79l-4.407 8.58c-14.622 28.2-21.891 54.14-21.814 77.79.46387 14.85 5.1025 26.33 13.916 34.44 8.659 8.12 19.289 12.45 31.891 12.99 26.363.08 48.939-12.6 67.723-38.03 7.97-11.37 14.5-23.55 19.6-36.53 6.34-16.32 10.75-34.45 13.22-54.39.62-4.02 1.12-8.12 1.51-12.29.54-6.96 1.28-22.27 2.2-45.927.24-4.871.47-10.168.70-15.889s.46-11.519.70-17.394c.23-5.876.46-11.634.69-17.278.23-5.72.47-11.055.70-16.003.31-4.948.62-9.318.93-13.106.30-3.8655.65-6.8402 1.04-8.9276 0-1.9328-.23-2.9383-.70-3.0156-.08-.0000654-.14-0.0098-.20-.0098zm47.75 24.246c-.06-.007-.12-.002-.18.016-.30.087-.64.443-1.05 1.076-1.62 3.788-3.2 7.615-4.75 11.48-1.47 3.866-2.86 7.693-4.17 11.481-1.16 4.561-2.36 10.552-3.6 17.974s-2.36 14.458-3.36 21.106c-.93 6.571-2.36 17.511-4.29 32.821-1.77 14.58-2.69 23.48-2.77 26.84-.05.18-.09.34-.13.53v1.04c-.39 10.67 1 19.37 4.17 26.09 3.48 6.81 8.35 10.32 14.61 10.56 6.11-.31 11.29-3.48 15.54-9.51 4.33-6.03 7.73-13.73 10.21-23.08 2.55-9.43 3.86-16.24 3.94-20.41.23-2.48-.27-3.71-1.51-3.71-1.08 0-2.2 1.74-3.36 5.22-1.16 3.4-2.59 6.37-4.29 8.93-1.62 2.55-4.02 4.17-7.19 4.87-3.09.69-6.22 0-9.39-2.09-5.18-3.87-7.77-10.67-7.77-20.41v-4.17c.03-.39.08-.77.11-1.17 0-2.7.19-7.22.58-13.56 0-1.01.27-4.49.81-10.441.62-5.953 1.74-15.81 3.37-29.571 1.62-13.839 3.4-27.176 5.33-40.01-.17-1.221-.46-1.855-.86-1.902zm67.14 123.59c-1.08-.08-2.17 1.27-3.25 4.05-1 2.79-2.67 8.08-4.99 15.89s-4.71 15.31-7.19 22.5c-2.39 7.11-5.18 12.76-8.34 16.93-3.17 4.1-7.97 8.85-14.39 14.27-6.34 5.41-11.86 9.93-16.58 13.56-4.64 3.64-7.69 6.5-9.16 8.58-.85 1.32-1.12 2.17-.81 2.56.31.31 1.04.50 2.2.58 1.16-.08 4.06-.62 8.7-1.63 4.64-1 10.4-2.74 17.28-5.22 6.96-2.55 11.71-5.21 14.26-8 2.63-2.78 5.03-6.8 7.19-12.06 2.17-5.33 4.56-13.02 7.19-23.07 2.71-10.05 5.72-25.29 9.04-45.7.47-1.93.09-3.01-1.15-3.24zm-87.73 133.16c-.47 0-.97.35-1.51 1.04l-17.63 27.14c-.39.62-.58 1.04-.58 1.28 0 .30.19.73.58 1.27 3.09 1.93 5.92 3.98 8.47 6.15 2.62 2.24 5.29 4.44 8 6.61.31.23.66.42 1.04.58.39.15.85.15 1.39 0 .54-.08 1.2-.35 1.97-.82.78-.46 1.67-1.23 2.67-2.31 1.63-1.55 3.09-3.21 4.41-4.99 1.39-1.7 2.74-3.56 4.06-5.57 1.62-2.47 2.74-4.87 3.36-7.19.70-2.32.74-4.56.12-6.72-.39-1.86-1.09-3.56-2.09-5.11-1.01-1.47-2.16-2.86-3.48-4.17-1.31-1.31-2.78-2.51-4.41-3.6-1.54-1-3.09-1.97-4.64-2.89-.61-.39-1.19-.62-1.73-.70zm-35.6 2.28c-.45.04-.87.33-1.28.85-.08.08-.12.15-.12.23l-17.74 27.02c-.39.62-.58 1.08-.58 1.39s.19.66.58 1.05c0 .07.04.11.12.11 1.54 1.01 3.13 2.13 4.75 3.36.54.39 1.08.82 1.62 1.28 1.78 1.31 3.48 2.67 5.11 4.06 1.54 1.39 3.17 2.74 4.87 4.06.46.46 1 .69 1.62.69h.81l.70-.23c.62-.23 1.35-.69 2.2-1.39l.58-.46 1.16-1.16c.39-.24.70-.54.93-.93l.69-.70c.24-.15.43-.34.58-.58l.58-.58c0-.07.08-.19.24-.34l1.85-2.32c.23-.24.50-.58.81-1.05.16-.15.27-.35.35-.58.15-.23.31-.42.47-.58l.58-.81 1.39-2.09c0-.07.07-.19.23-.34.15-.31.35-.62.58-.93.23-.23.42-.54.58-.93l.58-1.04v-.23c.08 0 .11-.04.11-.12.16-.31.27-.62.35-.93l.47-.93.46-1.39v-.35c.08-.07.12-.19.12-.35l.34-1.39v-.58c.08-.15.12-.30.12-.46v-1.62c0-.16-.04-.35-.12-.58v-.47c-.07-.15-.11-.34-.11-.58-.08-.15-.12-.38-.12-.69-.08-.08-.11-.23-.11-.47-.08-.15-.12-.27-.12-.34 0-.08-.04-.16-.12-.24l-.34-1.04c-.16-.46-.31-.81-.47-1.04-.31-.78-.73-1.55-1.27-2.32l-1.05-1.39-1.39-1.63c-.62-.62-1.24-1.2-1.86-1.74-.61-.54-1.27-1.08-1.97-1.62l-.46-.35c-.46-.39-.93-.73-1.39-1.04-.47-.23-.93-.51-1.39-.82-.31-.23-.62-.42-.93-.57-.16-.16-.31-.28-.46-.35l-.47-.23c-.15-.16-.31-.27-.46-.35-.16 0-.31-.08-.47-.23l-.81-.35c-.07-.08-.15-.12-.23-.12l-.23-.11c-.16-.04-.31-.06-.46-.04z"/>
</svg>